# xmcd
#
# Track frame offsets:
#	150
#	17027
#	32179
#	53106
#	66458
#	85810
#	100662
#	116489
#	131041
#	150543
#	171620
#	192697
#	210474
#	226376
#	244003
#	263355
#
# Disc length: 3760
#
# Revision: 1
# Processed by: cddbd v1.5.2PL0 Copyright (c) Steve Scherf et al.
# Submitted via: kJams Pro (development) 1.0patch51.39
#
DISCID=dc0eae10
DTITLE=Various Artist - SY1017
DYEAR=2004
DGENRE=Country
TTITLE0=Twain, Shania - You're Still The One
TTITLE1=Hill, Faith - This Kiss
TTITLE2=Yearwood, Trisha - How Do I Live
TTITLE3=Dixie Chicks - There's Your Trouble
TTITLE4=Carter, Deana - Strawberry Wine
TTITLE5=Rimes, LeAnn - Blue
TTITLE6=McBride, Martina - Valentine
TTITLE7=Morgan, Lorrie - Go Away
TTITLE8=Twain, Shania and B. White - From This Moment On
TTITLE9=Hill, Faith and Vince Gill - Let Me Let Go
TTITLE10=Carter, Deana - Did I Shave My Legs For This
TTITLE11=Dixie Chicks - You Were Mine
TTITLE12=Clark, Terri - Poor Poor Pitiful Me
TTITLE13=Evans, Sara - No Place That Far
TTITLE14=Wilkinsons, The - Twenty–Six Cents
TTITLE15=Twain, Shania - That Don't Impress Me Much
EXTD=Label=Party Tyme-SyberSound
EXTT0=
EXTT1=
EXTT2=
EXTT3=
EXTT4=
EXTT5=
EXTT6=
EXTT7=
EXTT8=
EXTT9=
EXTT10=
EXTT11=
EXTT12=
EXTT13=
EXTT14=
EXTT15=
PLAYORDER=
